<svg id="visual" viewBox="0 0 1920 1080" width="1920" height="1080" xmlns="http://www.w3.org/2000/svg" xmlns:xlink="http://www.w3.org/1999/xlink" version="1.1"><rect x="0" y="0" width="1920" height="1080" fill="#FFFCF9"></rect><path d="M810 1080L995 945L866 810L730 675L854 540L932 405L808 270L1039 135L863 0L1920 0L1920 135L1920 270L1920 405L1920 540L1920 675L1920 810L1920 945L1920 1080Z" fill="#736779"></path><path d="M1139 1080L995 945L962 810L926 675L1082 540L1072 405L989 270L1206 135L1012 0L1920 0L1920 135L1920 270L1920 405L1920 540L1920 675L1920 810L1920 945L1920 1080Z" fill="#635868"></path><path d="M1255 1080L1319 945L1133 810L1128 675L1269 540L1359 405L1196 270L1247 135L1214 0L1920 0L1920 135L1920 270L1920 405L1920 540L1920 675L1920 810L1920 945L1920 1080Z" fill="#534958"></path><path d="M1513 1080L1447 945L1355 810L1518 675L1526 540L1580 405L1524 270L1588 135L1521 0L1920 0L1920 135L1920 270L1920 405L1920 540L1920 675L1920 810L1920 945L1920 1080Z" fill="#443b48"></path><path d="M1605 1080L1659 945L1622 810L1597 675L1680 540L1596 405L1610 270L1676 135L1599 0L1920 0L1920 135L1920 270L1920 405L1920 540L1920 675L1920 810L1920 945L1920 1080Z" fill="#352d39"></path></svg>