<svg id="visual" viewBox="0 0 900 600" width="900" height="600" xmlns="http://www.w3.org/2000/svg" xmlns:xlink="http://www.w3.org/1999/xlink" version="1.1"><rect x="0" y="0" width="900" height="600" fill="#f8f9fa"></rect><path d="M459 600L401 514L441 429L389 343L484 257L431 171L545 86L413 0L900 0L900 86L900 171L900 257L900 343L900 429L900 514L900 600Z" fill="#888277"></path><path d="M573 600L519 514L579 429L561 343L500 257L513 171L541 86L551 0L900 0L900 86L900 171L900 257L900 343L900 429L900 514L900 600Z" fill="#666055"></path><path d="M676 600L692 514L666 429L683 343L680 257L599 171L602 86L579 0L900 0L900 86L900 171L900 257L900 343L900 429L900 514L900 600Z" fill="#454036"></path><path d="M774 600L655 514L725 429L740 343L686 257L698 171L781 86L681 0L900 0L900 86L900 171L900 257L900 343L900 429L900 514L900 600Z" fill="#272219"></path><path d="M786 600L831 514L785 429L770 343L798 257L816 171L779 86L798 0L900 0L900 86L900 171L900 257L900 343L900 429L900 514L900 600Z" fill="#000000"></path></svg>