<svg width="1440" height="1024" viewBox="0 0 1440 1024" fill="none" xmlns="http://www.w3.org/2000/svg">
<g clip-path="url(#clip0_2153_444)">
<path d="M1440 0H0V1024H1440V0Z" fill="#FFFCF9"/>
<path d="M733.5 1024L642 877.985L705 731.97L622.5 585.956L775.5 438.044L690 292.03L871.5 146.015L660 0H1440V146.015V292.03V438.044V585.956V731.97V877.985V1024H733.5Z" fill="#736779" fill-opacity="0.3"/>
<path d="M916.5 1024L831 877.985L927 731.97L897 585.956L801 438.044L820.5 292.03L865.5 146.015L882 0H1440V146.015V292.03V438.044V585.956V731.97V877.985V1024H916.5Z" fill="#635868" fill-opacity="0.3"/>
<path d="M1081.5 1024L1108.5 877.985L1065 731.97L1093.5 585.956L1087.5 438.044L957 292.03L963 146.015L925.5 0H1440V146.015V292.03V438.044V585.956V731.97V877.985V1024H1081.5Z" fill="#534958" fill-opacity="0.3"/>
<path d="M1237.5 1024L1048.5 877.985L1159.5 731.97L1185 585.956L1096.5 438.044L1117.5 292.03L1248 146.015L1089 0H1440V146.015V292.03V438.044V585.956V731.97V877.985V1024H1237.5Z" fill="#443B48" fill-opacity="0.3"/>
<path d="M1257 1024L1329 877.985L1255.5 731.97L1231.5 585.956L1278 438.044L1306.5 292.03L1246.5 146.015L1276.5 0H1440V146.015V292.03V438.044V585.956V731.97V877.985V1024H1257Z" fill="#352D39" fill-opacity="0.3"/>
</g>
<defs>
<clipPath id="clip0_2153_444">
<rect width="1440" height="1024" fill="white"/>
</clipPath>
</defs>
</svg>
